<svg width="126" height="98" viewBox="0 0 126 98" fill="none" xmlns="http://www.w3.org/2000/svg">
    <path d="M9.79975 0C4.44325 0 0 4.44325 0 9.79975V68.5997C0 73.9572 4.44325 78.4005 9.79975 78.4005H76.2547C78.8162 89.5947 88.8535 98 100.799 98C114.667 98 125.999 86.668 125.999 72.8C125.999 60.8548 117.594 50.8175 106.399 48.256V9.801C106.399 4.4445 101.956 0.00124931 96.5985 0.00124931L9.79975 0ZM9.79975 8.4005H96.5997C97.4484 8.4005 98.0001 8.95225 98.0001 9.79992V47.7749C93.8946 48.2319 90.0764 49.688 86.7999 51.8872L71.3126 38.8062C70.6281 38.2212 69.7746 37.8706 68.8771 37.8081C67.9786 37.7446 67.0841 37.9722 66.3253 38.4556L53.4191 46.6811L36.1818 33.1186C35.4133 32.5033 34.4524 32.1781 33.4688 32.1996C32.6886 32.225 31.9318 32.4672 31.2814 32.8998L8.4006 47.9496V9.79958C8.4006 8.95193 8.95235 8.40015 9.80002 8.40015L9.79975 8.4005ZM57.3997 12.5998C50.4905 12.5998 44.7992 18.2912 44.7992 25.2002C44.7992 32.1092 50.4907 37.7998 57.3997 37.7998C64.308 37.7998 69.9992 32.1092 69.9992 25.2002C69.9992 18.2912 64.3077 12.5998 57.3997 12.5998ZM57.3997 21.0003C59.7689 21.0003 61.599 22.8313 61.599 25.2005C61.599 27.5697 59.7689 29.4007 57.3997 29.4007C55.0296 29.4007 53.1995 27.5697 53.1995 25.2005C53.1995 22.8314 55.0296 21.0003 57.3997 21.0003ZM33.3802 41.5628L50.6185 55.0813C51.3001 55.6233 52.1341 55.9397 53.0042 55.9865C53.8744 56.0344 54.7377 55.8098 55.474 55.3439L68.2495 47.2062L80.6742 57.7062C78.0345 61.2169 76.2837 65.423 75.7747 70.0002H9.79973C8.95208 70.0002 8.4003 69.4484 8.4003 68.5998V57.969L33.3802 41.5628ZM100.8 56.0003C110.128 56.0003 117.6 63.472 117.6 72.8C117.6 82.128 110.128 89.5997 100.8 89.5997C91.4722 89.5997 84.0005 82.128 84.0005 72.8C84.0005 63.472 91.4722 56.0003 100.8 56.0003ZM100.756 60.1125C100.61 60.1193 100.464 60.134 100.319 60.1564C99.2827 60.2756 98.3286 60.7766 97.6411 61.5607C96.9536 62.3449 96.5825 63.3576 96.6 64.4005V68.5997H92.4008C92.2543 68.5929 92.1088 68.5929 91.9633 68.5997C90.849 68.6583 89.8031 69.1564 89.057 69.9845C88.31 70.8136 87.9232 71.9044 87.9809 73.0188C88.0385 74.1331 88.5375 75.1779 89.3656 75.925C90.1947 76.6721 91.2865 77.0588 92.4009 77.0002H96.6001V81.2005C96.5845 82.3245 97.0201 83.4085 97.8091 84.2082C98.5992 85.009 99.6763 85.4602 100.8 85.4602C101.924 85.4602 103.003 85.009 103.792 84.2082C104.581 83.4084 105.016 82.3244 105.001 81.2005V77.0002H109.201C110.325 77.0158 111.409 76.5803 112.209 75.7912C113.009 75.0022 113.461 73.924 113.461 72.8C113.461 71.676 113.009 70.5988 112.209 69.8087C111.409 69.0197 110.325 68.5841 109.201 68.5998H105.001V64.4005C105.024 63.2638 104.587 62.1661 103.787 61.3575C102.987 60.5499 101.893 60.1007 100.756 60.1124L100.756 60.1125Z" fill="#19B8A5"/>
</svg>
