<svg width="30" height="30" viewBox="0 0 30 30" fill="none" xmlns="http://www.w3.org/2000/svg">
<path fill-rule="evenodd" clip-rule="evenodd" d="M20.1486 18.271L30 28.1224L28.1224 30L18.271 20.1486C16.3495 21.6651 13.923 22.5702 11.2851 22.5702C5.0525 22.5702 0 17.5177 0 11.2851C0 5.0525 5.0525 0 11.2851 0C17.5177 0 22.5702 5.0525 22.5702 11.2851C22.5702 13.923 21.6651 16.3495 20.1486 18.271ZM11.2851 19.9149C16.0512 19.9149 19.9149 16.0512 19.9149 11.2851C19.9149 6.51899 16.0512 2.65531 11.2851 2.65531C6.51899 2.65531 2.65531 6.51899 2.65531 11.2851C2.65531 16.0512 6.51899 19.9149 11.2851 19.9149Z" fill="#EE6723"/>
</svg>
