<svg width="32" height="32" viewBox="0 0 32 32" fill="none" xmlns="http://www.w3.org/2000/svg">
    <path fill-rule="evenodd" clip-rule="evenodd" d="M20.9494 18.9972L31.1924 29.2402L29.2402 31.1924L18.9972 20.9494C16.9993 22.5262 14.4764 23.4673 11.7336 23.4673C5.25332 23.4673 0 18.2139 0 11.7336C0 5.25332 5.25332 0 11.7336 0C18.2139 0 23.4673 5.25332 23.4673 11.7336C23.4673 14.4764 22.5262 16.9993 20.9494 18.9972ZM11.7336 20.7064C16.6892 20.7064 20.7064 16.6892 20.7064 11.7336C20.7064 6.7781 16.6892 2.76085 11.7336 2.76085C6.7781 2.76085 2.76085 6.7781 2.76085 11.7336C2.76085 16.6892 6.7781 20.7064 11.7336 20.7064Z" fill="white"/>
</svg>
